<svg width="48" height="48" viewBox="0 0 48 48" fill="none" xmlns="http://www.w3.org/2000/svg">
<g clip-path="url(#clip0_1645_1094)">
<path d="M48 24C48 10.7452 37.2548 0 24 0C10.7452 0 0 10.7452 0 24C0 37.2548 10.7452 48 24 48C37.2548 48 48 37.2548 48 24Z" fill="#F8F8F8"/>
<path d="M17.0144 37.2756V30.6847H18.7446C19.2252 32.6543 19.9461 34.0606 20.9073 34.9034C21.8686 35.7462 22.9066 36.1676 24.0216 36.1676C24.8483 36.1676 25.5067 35.9261 25.9969 35.4431C26.4872 34.9602 26.7323 34.392 26.7323 33.7386C26.7323 33.2746 26.5785 32.8106 26.2709 32.3465C25.9633 31.8825 25.2327 31.3665 24.0793 30.7983C21.8589 29.7092 20.3594 28.9138 19.5809 28.4119C18.8023 27.9006 18.1775 27.2471 17.7065 26.4517C17.2355 25.6562 17 24.7424 17 23.7102C17 22.053 17.6008 20.6894 18.8023 19.6193C20.0134 18.5398 21.412 18 22.998 18C24.6608 18 26.0739 18.5492 27.2369 19.6477C27.4291 19.3636 27.5877 18.928 27.7127 18.3409H29.3708V24.0227H27.7559C27.4676 22.7633 26.9197 21.7263 26.1122 20.9119C25.3049 20.0975 24.3965 19.6903 23.3872 19.6903C22.6279 19.6903 22.0223 19.8987 21.5706 20.3153C21.1284 20.732 20.9073 21.2528 20.9073 21.8778C20.9073 22.3608 21.0515 22.8106 21.3399 23.2273C21.6282 23.6345 22.0175 23.9753 22.5077 24.25C22.998 24.5151 24.0361 25.0123 25.6221 25.7415C27.0447 26.4044 28.0972 26.9962 28.7796 27.517C29.4621 28.0379 30.0004 28.696 30.3944 29.4915C30.7982 30.2775 31 31.1297 31 32.0483C31 33.7528 30.3609 35.1733 29.0824 36.3097C27.804 37.4365 26.2805 38 24.5119 38C23.5026 38 22.5125 37.7916 21.5417 37.375C20.5805 36.9583 19.8115 36.4044 19.2348 35.713C19.0138 36.1392 18.8503 36.66 18.7446 37.2756H17.0144Z" fill="#1D1D1D"/>
<path d="M18.7128 15.0127H21.6639C22.7235 15.0127 23.5859 14.1858 23.5859 13.1698C23.5859 12.1538 22.7235 11.3269 21.6639 11.3269H18.7128C17.6532 11.3269 16.7908 12.1538 16.7908 13.1698C16.7908 14.1858 17.6532 15.0127 18.7128 15.0127ZM20.7244 11.9372H21.6639C22.3721 11.9372 22.9477 12.489 22.9477 13.1681C22.9477 13.8472 22.3721 14.399 21.6639 14.399H20.7244C21.2265 14.1979 21.5797 13.7217 21.5797 13.1681C21.5797 12.6145 21.2265 12.1383 20.7244 11.9372ZM18.7128 11.9372H19.6523C19.1503 12.1383 18.797 12.6145 18.797 13.1681C18.797 13.7217 19.1503 14.1979 19.6523 14.399H18.7128C18.0046 14.399 17.4291 13.8472 17.4291 13.1681C17.4291 12.489 18.0046 11.9372 18.7128 11.9372Z" fill="#1D1D1D"/>
<path d="M22.4904 10.6876H25.4415C26.5011 10.6876 27.3635 9.86065 27.3635 8.84464C27.3635 7.82862 26.5011 7 25.4415 7H22.4904C21.4308 7 20.5684 7.82691 20.5684 8.84292C20.5684 9.85893 21.4308 10.6858 22.4904 10.6858V10.6876ZM24.502 7.61201H25.4415C26.1497 7.61201 26.7252 8.16386 26.7252 8.84292C26.7252 9.52198 26.1497 10.0738 25.4415 10.0738H24.502C25.004 9.87268 25.3572 9.39648 25.3572 8.84292C25.3572 8.28935 25.004 7.81315 24.502 7.61201ZM22.4904 7.61201H23.4299C22.9278 7.81315 22.5746 8.28935 22.5746 8.84292C22.5746 9.39648 22.9278 9.87268 23.4299 10.0738H22.4904C21.7822 10.0738 21.2066 9.52198 21.2066 8.84292C21.2066 8.16386 21.7822 7.61201 22.4904 7.61201Z" fill="#1D1D1D"/>
<path d="M29.2174 11.3269H26.2662C25.2066 11.3269 24.3442 12.1538 24.3442 13.1698C24.3442 14.1858 25.2066 15.0127 26.2662 15.0127H29.2174C30.277 15.0127 31.1394 14.1858 31.1394 13.1698C31.1394 12.1538 30.277 11.3269 29.2174 11.3269ZM27.2057 14.4024H26.2662C25.558 14.4024 24.9825 13.8506 24.9825 13.1715C24.9825 12.4925 25.558 11.9406 26.2662 11.9406H27.2057C26.7037 12.1418 26.3505 12.618 26.3505 13.1715C26.3505 13.7251 26.7037 14.2013 27.2057 14.4024ZM29.2174 14.4024H28.2779C28.7799 14.2013 29.1331 13.7251 29.1331 13.1715C29.1331 12.618 28.7799 12.1418 28.2779 11.9406H29.2174C29.9256 11.9406 30.5011 12.4925 30.5011 13.1715C30.5011 13.8506 29.9256 14.4024 29.2174 14.4024Z" fill="#1D1D1D"/>
</g>
<defs>
<clipPath id="clip0_1645_1094">
<rect width="48" height="48" fill="white"/>
</clipPath>
</defs>
</svg>
