<svg width="48" height="48" viewBox="0 0 48 48" fill="none" xmlns="http://www.w3.org/2000/svg">
<rect width="48" height="48" rx="24" fill="#F8F8F8"/>
<path d="M14.707 36.5508V27.4883H17.0508C17.7018 30.1966 18.6784 32.1302 19.9805 33.2891C21.2826 34.4479 22.6888 35.0273 24.1992 35.0273C25.319 35.0273 26.2109 34.6953 26.875 34.0312C27.5391 33.3672 27.8711 32.5859 27.8711 31.6875C27.8711 31.0495 27.6628 30.4115 27.2461 29.7734C26.8294 29.1354 25.8398 28.4258 24.2773 27.6445C21.2695 26.1471 19.2383 25.0534 18.1836 24.3633C17.1289 23.6602 16.2826 22.7617 15.6445 21.668C15.0065 20.5742 14.6875 19.3177 14.6875 17.8984C14.6875 15.6198 15.5013 13.7448 17.1289 12.2734C18.7695 10.7891 20.6641 10.0469 22.8125 10.0469C25.0651 10.0469 26.9792 10.8021 28.5547 12.3125C28.8151 11.9219 29.0299 11.3229 29.1992 10.5156H31.4453V18.3281H29.2578C28.8672 16.5964 28.125 15.1706 27.0312 14.0508C25.9375 12.931 24.707 12.3711 23.3398 12.3711C22.3112 12.3711 21.4909 12.6576 20.8789 13.2305C20.2799 13.8034 19.9805 14.5195 19.9805 15.3789C19.9805 16.043 20.1758 16.6615 20.5664 17.2344C20.957 17.7943 21.4844 18.263 22.1484 18.6406C22.8125 19.0052 24.2188 19.6888 26.3672 20.6914C28.2943 21.6029 29.7201 22.4167 30.6445 23.1328C31.569 23.849 32.2982 24.7539 32.832 25.8477C33.3789 26.9284 33.6523 28.1003 33.6523 29.3633C33.6523 31.707 32.7865 33.6602 31.0547 35.2227C29.3229 36.7721 27.2591 37.5469 24.8633 37.5469C23.4961 37.5469 22.1549 37.2604 20.8398 36.6875C19.5378 36.1146 18.4961 35.3529 17.7148 34.4023C17.4154 34.9883 17.194 35.7044 17.0508 36.5508H14.707Z" fill="#DE0000"/>
</svg>
