<svg width="250" height="28" viewBox="0 0 250 28" fill="none" xmlns="http://www.w3.org/2000/svg">
<g clip-path="url(#clip0_1645_1097)">
<path d="M9.78125 2.87891H7.55469C6.22656 2.87891 5.25 3.02214 4.625 3.30859C4 3.59505 3.47266 4.16797 3.04297 5.02734C2.6263 5.8737 2.3724 6.88281 2.28125 8.05469H0.0742188V0.515625H26.5781V8.05469H24.3711C23.9544 6.02344 23.3685 4.65625 22.6133 3.95312C21.8581 3.23698 20.6536 2.87891 19 2.87891H16.7148V21.5898C16.7148 22.8008 16.9167 23.6471 17.3203 24.1289C17.737 24.5977 18.6029 24.832 19.918 24.832H20.6016V27H5.97266V24.832H6.59766C7.92578 24.832 8.78516 24.5911 9.17578 24.1094C9.57943 23.6146 9.78125 22.7747 9.78125 21.5898V2.87891ZM36.9688 16.1992V22.332C36.9688 23.2565 37.112 23.9206 37.3984 24.3242C37.6849 24.7148 38.2057 24.9167 38.9609 24.9297V27H28.082V24.9297C29.2018 24.9297 29.9115 24.7409 30.2109 24.3633C30.5104 23.9857 30.6602 23.3086 30.6602 22.332V6.25781C30.6602 5.28125 30.5039 4.60417 30.1914 4.22656C29.8919 3.84896 29.1888 3.66016 28.082 3.66016V1.58984L36.9688 0.046875V13.1914C37.8151 12.2409 38.7266 11.5312 39.7031 11.0625C40.6797 10.5938 41.7214 10.3594 42.8281 10.3594C44.1823 10.3594 45.3346 10.6523 46.2852 11.2383C47.2357 11.8242 47.8737 12.5339 48.1992 13.3672C48.5247 14.2005 48.6875 15.3724 48.6875 16.8828V22.332C48.6875 23.3346 48.8438 24.0182 49.1562 24.3828C49.4688 24.7474 50.1393 24.9297 51.168 24.9297V27H40.2891V24.9297C40.8099 24.8906 41.2721 24.7344 41.6758 24.4609C42.0794 24.1875 42.2812 23.4779 42.2812 22.332V16.1992C42.2812 14.5195 41.6497 13.6797 40.3867 13.6797C39.8659 13.6797 39.319 13.888 38.7461 14.3047C38.1732 14.7214 37.5807 15.3529 36.9688 16.1992ZM60.0742 18.8164C60.0742 20.9388 60.4323 22.5339 61.1484 23.6016C61.8776 24.6693 62.9648 25.2031 64.4102 25.2031C65.9466 25.2031 67.3594 24.4219 68.6484 22.8594L70.4648 23.9531C69.7227 25.0208 68.6549 25.9062 67.2617 26.6094C65.8815 27.2995 64.3516 27.6445 62.6719 27.6445C60.0938 27.6445 57.8867 26.8633 56.0508 25.3008C54.2148 23.7253 53.2969 21.6029 53.2969 18.9336C53.2969 16.2643 54.1823 14.168 55.9531 12.6445C57.737 11.1211 59.8789 10.3594 62.3789 10.3594C64.8919 10.3594 66.9492 11.0625 68.5508 12.4688C70.1654 13.862 70.9727 15.9779 70.9727 18.8164H60.0742ZM60.0547 16.8438H64.9961C64.918 13.9661 64.0781 12.5273 62.4766 12.5273C61.6693 12.5273 61.0638 12.8854 60.6602 13.6016C60.2565 14.3177 60.0547 15.3984 60.0547 16.8438ZM84.6055 26.5508V17.4883H86.9492C87.6003 20.1966 88.5768 22.1302 89.8789 23.2891C91.181 24.4479 92.5872 25.0273 94.0977 25.0273C95.2174 25.0273 96.1094 24.6953 96.7734 24.0312C97.4375 23.3672 97.7695 22.5859 97.7695 21.6875C97.7695 21.0495 97.5612 20.4115 97.1445 19.7734C96.7279 19.1354 95.7383 18.4258 94.1758 17.6445C91.168 16.1471 89.1367 15.0534 88.082 14.3633C87.0273 13.6602 86.181 12.7617 85.543 11.668C84.9049 10.5742 84.5859 9.31771 84.5859 7.89844C84.5859 5.61979 85.3997 3.74479 87.0273 2.27344C88.668 0.789062 90.5625 0.046875 92.7109 0.046875C94.9635 0.046875 96.8776 0.802083 98.4531 2.3125C98.7135 1.92188 98.9284 1.32292 99.0977 0.515625H101.344V8.32812H99.1562C98.7656 6.59635 98.0234 5.17057 96.9297 4.05078C95.8359 2.93099 94.6055 2.37109 93.2383 2.37109C92.2096 2.37109 91.3893 2.65755 90.7773 3.23047C90.1784 3.80339 89.8789 4.51953 89.8789 5.37891C89.8789 6.04297 90.0742 6.66146 90.4648 7.23438C90.8555 7.79427 91.3828 8.26302 92.0469 8.64062C92.7109 9.00521 94.1172 9.6888 96.2656 10.6914C98.1927 11.6029 99.6185 12.4167 100.543 13.1328C101.467 13.849 102.197 14.7539 102.73 15.8477C103.277 16.9284 103.551 18.1003 103.551 19.3633C103.551 21.707 102.685 23.6602 100.953 25.2227C99.2214 26.7721 97.1576 27.5469 94.7617 27.5469C93.3945 27.5469 92.0534 27.2604 90.7383 26.6875C89.4362 26.1146 88.3945 25.3529 87.6133 24.4023C87.3138 24.9883 87.0924 25.7044 86.9492 26.5508H84.6055ZM113.434 18.8164C113.434 20.9388 113.792 22.5339 114.508 23.6016C115.237 24.6693 116.324 25.2031 117.77 25.2031C119.306 25.2031 120.719 24.4219 122.008 22.8594L123.824 23.9531C123.082 25.0208 122.014 25.9062 120.621 26.6094C119.241 27.2995 117.711 27.6445 116.031 27.6445C113.453 27.6445 111.246 26.8633 109.41 25.3008C107.574 23.7253 106.656 21.6029 106.656 18.9336C106.656 16.2643 107.542 14.168 109.312 12.6445C111.096 11.1211 113.238 10.3594 115.738 10.3594C118.251 10.3594 120.309 11.0625 121.91 12.4688C123.525 13.862 124.332 15.9779 124.332 18.8164H113.434ZM113.414 16.8438H118.355C118.277 13.9661 117.438 12.5273 115.836 12.5273C115.029 12.5273 114.423 12.8854 114.02 13.6016C113.616 14.3177 113.414 15.3984 113.414 16.8438ZM138.414 25.3008C137.464 25.9909 136.467 26.5117 135.426 26.8633C134.397 27.2018 133.316 27.3711 132.184 27.3711C130.686 27.3711 129.56 27.0326 128.805 26.3555C128.062 25.6784 127.691 24.8385 127.691 23.8359C127.691 22.4167 128.44 21.1602 129.938 20.0664C131.435 18.9727 134.143 17.7617 138.062 16.4336V14.9883C138.062 13.9596 137.815 13.3021 137.32 13.0156C136.826 12.7161 136.24 12.5664 135.562 12.5664C133.922 12.5664 133.01 13.1654 132.828 14.3633C132.698 15.1836 132.438 15.7826 132.047 16.1602C131.656 16.5247 131.051 16.707 130.23 16.707C129.488 16.707 128.896 16.5117 128.453 16.1211C128.023 15.7174 127.809 15.2487 127.809 14.7148C127.809 13.5039 128.609 12.4753 130.211 11.6289C131.812 10.7826 133.954 10.3594 136.637 10.3594C138.134 10.3594 139.384 10.4505 140.387 10.6328C141.402 10.8151 142.216 11.1536 142.828 11.6484C143.453 12.1432 143.863 12.6641 144.059 13.2109C144.267 13.7578 144.371 14.5 144.371 15.4375V22.8594C144.371 23.9792 144.71 24.5391 145.387 24.5391C145.973 24.5391 146.344 24.1745 146.5 23.4453H148.121C148.082 24.7865 147.587 25.776 146.637 26.4141C145.699 27.0521 144.573 27.3711 143.258 27.3711C140.862 27.3711 139.247 26.681 138.414 25.3008ZM138.062 23.1914V18.6211C136.253 19.3763 135.068 20.0599 134.508 20.6719C133.961 21.2839 133.688 21.9154 133.688 22.5664C133.688 23.0612 133.85 23.5104 134.176 23.9141C134.501 24.3047 134.931 24.5 135.465 24.5C135.934 24.5 136.383 24.3893 136.812 24.168C137.242 23.9466 137.659 23.6211 138.062 23.1914ZM155.465 8.05469V20.2227C155.465 22.1758 155.816 23.4323 156.52 23.9922C157.236 24.5521 158.147 24.832 159.254 24.832V27H149.312V24.832C150.159 24.832 150.895 24.6302 151.52 24.2266C152.145 23.8099 152.542 23.3346 152.711 22.8008C152.88 22.2539 152.965 21.401 152.965 20.2422V6.72656C152.965 4.03125 151.702 2.68359 149.176 2.68359V0.515625H158.121L172.633 16.7266V7.01953C172.633 4.12891 171.415 2.68359 168.98 2.68359V0.515625H178.492V2.68359C177.828 2.68359 177.203 2.86589 176.617 3.23047C176.044 3.59505 175.654 4.0638 175.445 4.63672C175.237 5.19661 175.133 6.01693 175.133 7.09766V27.4297H172.633L155.465 8.05469ZM188.043 18.8164C188.043 20.9388 188.401 22.5339 189.117 23.6016C189.846 24.6693 190.934 25.2031 192.379 25.2031C193.915 25.2031 195.328 24.4219 196.617 22.8594L198.434 23.9531C197.691 25.0208 196.624 25.9062 195.23 26.6094C193.85 27.2995 192.32 27.6445 190.641 27.6445C188.062 27.6445 185.855 26.8633 184.02 25.3008C182.184 23.7253 181.266 21.6029 181.266 18.9336C181.266 16.2643 182.151 14.168 183.922 12.6445C185.706 11.1211 187.848 10.3594 190.348 10.3594C192.861 10.3594 194.918 11.0625 196.52 12.4688C198.134 13.862 198.941 15.9779 198.941 18.8164H188.043ZM188.023 16.8438H192.965C192.887 13.9661 192.047 12.5273 190.445 12.5273C189.638 12.5273 189.033 12.8854 188.629 13.6016C188.225 14.3177 188.023 15.3984 188.023 16.8438ZM207.887 27.3516L202.867 15.7305C202.333 14.4935 201.897 13.7448 201.559 13.4844C201.22 13.2109 200.719 13.0742 200.055 13.0742V11.0039H210.777V13.0742C209.436 13.0742 208.766 13.3216 208.766 13.8164C208.766 14.0638 208.909 14.5391 209.195 15.2422L211.695 21.2578L216.363 11.0039H219.703L224.449 21.2578L226.969 14.9492C227.112 14.5716 227.184 14.2852 227.184 14.0898C227.184 13.4128 226.428 13.0742 224.918 13.0742V11.0039H231.871V13.0742C231.155 13.0742 230.608 13.2956 230.23 13.7383C229.853 14.168 229.345 15.151 228.707 16.6875L224.215 27.3516H220.777L215.953 17.1172L211.344 27.3516H207.887ZM233.59 27.6445L233.453 22.332H235.367C236.383 24.5326 238.245 25.6328 240.953 25.6328C242.086 25.6328 243.023 25.4375 243.766 25.0469C244.508 24.6562 244.879 24.2135 244.879 23.7188C244.879 23.2891 244.677 22.957 244.273 22.7227C243.857 22.5013 242.926 22.2409 241.48 21.9414C239.241 21.4857 237.587 21.056 236.52 20.6523C235.452 20.2357 234.592 19.6042 233.941 18.7578C233.29 17.8984 232.965 16.9219 232.965 15.8281C232.965 14.2005 233.629 12.8854 234.957 11.8828C236.285 10.8672 238.062 10.3594 240.289 10.3594C242.008 10.3594 243.759 10.6979 245.543 11.375C245.855 11.0755 246.103 10.737 246.285 10.3594H247.906L248.082 15.2031H246.52C245.517 13.2109 243.518 12.2148 240.523 12.2148C239.547 12.2148 238.746 12.3776 238.121 12.7031C237.496 13.0156 237.184 13.4193 237.184 13.9141C237.184 14.4349 237.438 14.819 237.945 15.0664C238.44 15.3138 239.651 15.6263 241.578 16.0039C243.583 16.4076 245.087 16.8177 246.09 17.2344C247.105 17.651 247.9 18.263 248.473 19.0703C249.059 19.8646 249.352 20.7891 249.352 21.8438C249.352 23.5495 248.596 24.9427 247.086 26.0234C245.576 27.1042 243.707 27.6445 241.48 27.6445C239.775 27.6445 237.991 27.2799 236.129 26.5508C235.777 26.8112 235.517 27.1758 235.348 27.6445H233.59Z" fill="#1D1D1D"/>
<path d="M110.083 8.97389H113.388C114.575 8.97389 115.54 8.0478 115.54 6.90992C115.54 5.77204 114.575 4.84595 113.388 4.84595H110.083C108.896 4.84595 107.93 5.77204 107.93 6.90992C107.93 8.0478 108.896 8.97389 110.083 8.97389ZM112.336 5.52945H113.388C114.181 5.52945 114.826 6.14748 114.826 6.90799C114.826 7.66851 114.181 8.28654 113.388 8.28654H112.336C112.898 8.06128 113.293 7.52796 113.293 6.90799C113.293 6.28803 112.898 5.75471 112.336 5.52945ZM110.083 5.52945H111.135C110.573 5.75471 110.177 6.28803 110.177 6.90799C110.177 7.52796 110.573 8.06128 111.135 8.28654H110.083C109.29 8.28654 108.645 7.66851 108.645 6.90799C108.645 6.14748 109.29 5.52945 110.083 5.52945Z" fill="#1D1D1D"/>
<path d="M114.313 4.12987H117.619C118.805 4.12987 119.771 3.20378 119.771 2.0659C119.771 0.928017 118.805 0 117.619 0H114.313C113.127 0 112.161 0.926092 112.161 2.06397C112.161 3.20185 113.127 4.12794 114.313 4.12794V4.12987ZM116.566 0.685424H117.619C118.412 0.685424 119.056 1.30346 119.056 2.06397C119.056 2.82448 118.412 3.44252 117.619 3.44252H116.566C117.129 3.21725 117.524 2.68393 117.524 2.06397C117.524 1.44401 117.129 0.910689 116.566 0.685424ZM114.313 0.685424H115.366C114.803 0.910689 114.408 1.44401 114.408 2.06397C114.408 2.68393 114.803 3.21725 115.366 3.44252H114.313C113.52 3.44252 112.876 2.82448 112.876 2.06397C112.876 1.30346 113.52 0.685424 114.313 0.685424Z" fill="#1D1D1D"/>
<path d="M121.848 4.84595H118.542C117.356 4.84595 116.39 5.77204 116.39 6.90992C116.39 8.0478 117.356 8.97389 118.542 8.97389H121.848C123.034 8.97389 124 8.0478 124 6.90992C124 5.77204 123.034 4.84595 121.848 4.84595ZM119.595 8.29039H118.542C117.749 8.29039 117.105 7.67236 117.105 6.91185C117.105 6.15133 117.749 5.5333 118.542 5.5333H119.595C119.032 5.75856 118.637 6.29188 118.637 6.91185C118.637 7.53181 119.032 8.06513 119.595 8.29039ZM121.848 8.29039H120.795C121.358 8.06513 121.753 7.53181 121.753 6.91185C121.753 6.29188 121.358 5.75856 120.795 5.5333H121.848C122.641 5.5333 123.285 6.15133 123.285 6.91185C123.285 7.67236 122.641 8.29039 121.848 8.29039Z" fill="#1D1D1D"/>
</g>
<defs>
<clipPath id="clip0_1645_1097">
<rect width="250" height="28" fill="white"/>
</clipPath>
</defs>
</svg>
